<svg xmlns="http://www.w3.org/2000/svg" xmlns:xlink="http://www.w3.org/1999/xlink" width="1000" zoomAndPan="magnify" viewBox="0 0 750 749.999995" height="1000" preserveAspectRatio="xMidYMid meet" version="1.0"><defs><g><g id="id1"/></g><clipPath id="id2"><path d="M 176.886719 108.820312 L 560.886719 108.820312 L 560.886719 538.570312 L 176.886719 538.570312 Z M 176.886719 108.820312 " clip-rule="nonzero"/></clipPath></defs><rect x="-75" width="900" fill="rgb(100%, 100%, 100%)" y="-74.999999" height="899.999994" fill-opacity="1"/><rect x="-75" width="900" fill="rgb(100%, 100%, 100%)" y="-74.999999" height="899.999994" fill-opacity="1"/><rect x="-75" width="900" fill="rgb(100%, 100%, 100%)" y="-74.999999" height="899.999994" fill-opacity="1"/><rect x="-75" width="900" fill="rgb(100%, 100%, 100%)" y="-74.999999" height="899.999994" fill-opacity="1"/><g clip-path="url(#id2)"><path fill="rgb(0%, 51.759338%, 53.729248%)" d="M 537.078125 113.804688 C 516.242188 118.417969 495.765625 124.265625 475.636719 131.347656 C 455.871094 138.136719 436.566406 146.042969 417.714844 155.0625 C 400.792969 163.128906 384.515625 172.339844 368.886719 182.691406 C 353.195312 172.332031 336.859375 163.121094 319.871094 155.0625 C 301.03125 146.039062 281.734375 138.128906 261.980469 131.335938 C 241.902344 124.261719 221.472656 118.417969 200.695312 113.804688 L 176.886719 108.941406 L 176.886719 346.6875 C 176.882812 349.828125 176.960938 352.96875 177.113281 356.105469 C 177.265625 359.242188 177.496094 362.375 177.804688 365.5 C 178.109375 368.625 178.496094 371.742188 178.953125 374.847656 C 179.414062 377.953125 179.949219 381.046875 180.5625 384.128906 C 181.175781 387.207031 181.863281 390.273438 182.625 393.320312 C 183.386719 396.367188 184.226562 399.390625 185.136719 402.398438 C 186.046875 405.402344 187.035156 408.382812 188.089844 411.339844 C 189.148438 414.296875 190.28125 417.226562 191.480469 420.128906 C 192.683594 423.03125 193.957031 425.902344 195.300781 428.742188 C 196.640625 431.582031 198.054688 434.386719 199.535156 437.15625 C 201.015625 439.925781 202.5625 442.65625 204.179688 445.351562 C 205.792969 448.046875 207.476562 450.699219 209.21875 453.3125 C 210.964844 455.921875 212.773438 458.488281 214.644531 461.011719 C 216.519531 463.535156 218.449219 466.011719 220.445312 468.4375 C 222.4375 470.867188 224.488281 473.246094 226.597656 475.574219 C 228.710938 477.898438 230.875 480.175781 233.097656 482.394531 C 235.320312 484.617188 237.59375 486.78125 239.921875 488.890625 C 242.25 491 244.628906 493.050781 247.058594 495.042969 C 249.488281 497.035156 251.964844 498.96875 254.488281 500.839844 C 257.015625 502.710938 259.582031 504.519531 262.195312 506.265625 C 264.808594 508.007812 267.460938 509.691406 270.15625 511.304688 C 272.855469 512.917969 275.585938 514.46875 278.359375 515.949219 C 281.128906 517.429688 283.9375 518.839844 286.777344 520.183594 C 289.617188 521.527344 292.492188 522.800781 295.394531 524 C 298.296875 525.203125 301.230469 526.332031 304.1875 527.390625 C 307.148438 528.449219 310.132812 529.433594 313.140625 530.347656 C 316.144531 531.257812 319.175781 532.097656 322.222656 532.859375 C 325.273438 533.621094 328.335938 534.3125 331.421875 534.925781 C 334.503906 535.535156 337.597656 536.074219 340.707031 536.535156 C 343.816406 536.996094 346.933594 537.378906 350.0625 537.6875 C 353.191406 537.996094 356.324219 538.226562 359.460938 538.378906 C 362.601562 538.535156 365.742188 538.613281 368.886719 538.613281 C 372.027344 538.613281 375.167969 538.535156 378.308594 538.378906 C 381.449219 538.226562 384.582031 537.996094 387.707031 537.6875 C 390.835938 537.378906 393.953125 536.996094 397.0625 536.535156 C 400.171875 536.074219 403.269531 535.535156 406.351562 534.925781 C 409.433594 534.3125 412.5 533.621094 415.546875 532.859375 C 418.597656 532.097656 421.625 531.257812 424.632812 530.347656 C 427.640625 529.433594 430.621094 528.449219 433.582031 527.390625 C 436.542969 526.332031 439.472656 525.203125 442.375 524 C 445.28125 522.800781 448.152344 521.527344 450.992188 520.183594 C 453.832031 518.839844 456.640625 517.429688 459.410156 515.949219 C 462.183594 514.46875 464.917969 512.917969 467.613281 511.304688 C 470.308594 509.691406 472.960938 508.007812 475.574219 506.265625 C 478.1875 504.519531 480.757812 502.710938 483.28125 500.839844 C 485.804688 498.96875 488.28125 497.035156 490.710938 495.042969 C 493.140625 493.050781 495.519531 491 497.847656 488.890625 C 500.175781 486.78125 502.453125 484.617188 504.671875 482.394531 C 506.894531 480.175781 509.0625 477.898438 511.171875 475.574219 C 513.28125 473.246094 515.332031 470.867188 517.328125 468.4375 C 519.320312 466.011719 521.253906 463.535156 523.125 461.011719 C 524.996094 458.488281 526.804688 455.921875 528.550781 453.3125 C 530.296875 450.699219 531.976562 448.046875 533.589844 445.351562 C 535.207031 442.65625 536.753906 439.925781 538.234375 437.15625 C 539.714844 434.386719 541.128906 431.582031 542.472656 428.742188 C 543.816406 425.902344 545.085938 423.03125 546.289062 420.128906 C 547.492188 417.226562 548.621094 414.296875 549.679688 411.339844 C 550.738281 408.382812 551.722656 405.402344 552.632812 402.398438 C 553.546875 399.390625 554.382812 396.367188 555.144531 393.320312 C 555.90625 390.273438 556.59375 387.207031 557.207031 384.128906 C 557.820312 381.046875 558.355469 377.953125 558.816406 374.847656 C 559.277344 371.742188 559.660156 368.625 559.96875 365.5 C 560.273438 362.375 560.503906 359.242188 560.65625 356.105469 C 560.808594 352.96875 560.886719 349.828125 560.886719 346.6875 L 560.886719 108.941406 Z M 368.886719 232.375 C 404.8125 262.457031 422.984375 296.683594 422.828125 333.796875 C 422.828125 335.5625 422.742188 337.324219 422.570312 339.078125 C 422.398438 340.835938 422.136719 342.582031 421.792969 344.3125 C 421.449219 346.042969 421.019531 347.753906 420.507812 349.445312 C 419.992188 351.132812 419.398438 352.792969 418.722656 354.425781 C 418.046875 356.054688 417.292969 357.648438 416.460938 359.207031 C 415.628906 360.761719 414.71875 362.277344 413.738281 363.742188 C 412.757812 365.210938 411.707031 366.628906 410.585938 367.992188 C 409.464844 369.359375 408.277344 370.664062 407.03125 371.914062 C 405.78125 373.160156 404.472656 374.34375 403.105469 375.464844 C 401.742188 376.585938 400.324219 377.636719 398.855469 378.617188 C 397.386719 379.597656 395.871094 380.503906 394.316406 381.335938 C 392.757812 382.167969 391.160156 382.921875 389.527344 383.597656 C 387.898438 384.273438 386.234375 384.867188 384.542969 385.378906 C 382.855469 385.890625 381.140625 386.320312 379.410156 386.664062 C 377.675781 387.007812 375.929688 387.269531 374.171875 387.441406 C 372.414062 387.613281 370.652344 387.699219 368.886719 387.699219 C 367.117188 387.699219 365.355469 387.613281 363.597656 387.441406 C 361.839844 387.269531 360.09375 387.007812 358.363281 386.664062 C 356.628906 386.320312 354.917969 385.890625 353.226562 385.378906 C 351.535156 384.867188 349.875 384.273438 348.242188 383.597656 C 346.609375 382.921875 345.015625 382.167969 343.457031 381.335938 C 341.898438 380.503906 340.382812 379.597656 338.914062 378.617188 C 337.445312 377.636719 336.027344 376.585938 334.664062 375.464844 C 333.296875 374.34375 331.992188 373.160156 330.742188 371.914062 C 329.492188 370.664062 328.308594 369.359375 327.1875 367.992188 C 326.066406 366.628906 325.015625 365.210938 324.03125 363.742188 C 323.050781 362.277344 322.144531 360.761719 321.3125 359.207031 C 320.476562 357.648438 319.722656 356.054688 319.046875 354.425781 C 318.371094 352.792969 317.777344 351.132812 317.265625 349.445312 C 316.75 347.753906 316.324219 346.042969 315.976562 344.3125 C 315.632812 342.582031 315.375 340.835938 315.199219 339.078125 C 315.027344 337.324219 314.941406 335.5625 314.941406 333.796875 C 314.816406 296.347656 332.972656 262.304688 368.886719 232.375 Z M 521.148438 346.6875 C 521.148438 349.179688 521.089844 351.667969 520.964844 354.15625 C 520.84375 356.644531 520.660156 359.128906 520.414062 361.605469 C 520.171875 364.085938 519.867188 366.554688 519.5 369.019531 C 519.136719 371.484375 518.707031 373.9375 518.222656 376.378906 C 517.738281 378.824219 517.191406 381.25 516.585938 383.667969 C 515.980469 386.085938 515.316406 388.484375 514.589844 390.867188 C 513.867188 393.25 513.085938 395.613281 512.246094 397.960938 C 511.40625 400.304688 510.507812 402.628906 509.554688 404.929688 C 508.601562 407.230469 507.59375 409.507812 506.527344 411.757812 C 505.460938 414.007812 504.339844 416.234375 503.164062 418.429688 C 501.992188 420.625 500.761719 422.792969 499.480469 424.929688 C 498.199219 427.066406 496.867188 429.167969 495.480469 431.242188 C 494.097656 433.3125 492.660156 435.347656 491.175781 437.347656 C 489.691406 439.347656 488.160156 441.3125 486.578125 443.238281 C 484.996094 445.160156 483.371094 447.046875 481.695312 448.890625 C 480.023438 450.738281 478.304688 452.542969 476.539062 454.300781 C 474.777344 456.0625 472.972656 457.78125 471.125 459.453125 C 469.28125 461.125 467.394531 462.753906 465.464844 464.332031 C 463.539062 465.914062 461.574219 467.445312 459.574219 468.929688 C 457.570312 470.410156 455.535156 471.84375 453.460938 473.230469 C 451.390625 474.613281 449.285156 475.945312 447.144531 477.226562 C 445.007812 478.503906 442.839844 479.734375 440.640625 480.90625 C 438.445312 482.082031 436.21875 483.199219 433.964844 484.265625 C 431.710938 485.332031 429.433594 486.339844 427.128906 487.292969 C 424.828125 488.246094 422.503906 489.140625 420.15625 489.980469 C 417.808594 490.820312 415.441406 491.601562 413.058594 492.324219 C 410.671875 493.046875 408.269531 493.710938 405.851562 494.316406 C 403.4375 494.921875 401.003906 495.46875 398.558594 495.953125 C 396.113281 496.4375 393.660156 496.863281 391.195312 497.230469 C 388.730469 497.597656 386.253906 497.902344 383.773438 498.144531 C 381.292969 498.390625 378.808594 498.570312 376.320312 498.695312 C 373.832031 498.816406 371.339844 498.878906 368.847656 498.878906 C 366.355469 498.878906 363.863281 498.816406 361.375 498.695312 C 358.882812 498.570312 356.398438 498.390625 353.917969 498.144531 C 351.4375 497.902344 348.964844 497.597656 346.5 497.230469 C 344.035156 496.863281 341.578125 496.4375 339.132812 495.953125 C 336.691406 495.46875 334.257812 494.921875 331.839844 494.316406 C 329.421875 493.710938 327.019531 493.046875 324.636719 492.324219 C 322.25 491.601562 319.886719 490.820312 317.539062 489.980469 C 315.191406 489.140625 312.867188 488.246094 310.5625 487.292969 C 308.261719 486.339844 305.984375 485.332031 303.730469 484.265625 C 301.476562 483.199219 299.25 482.082031 297.050781 480.90625 C 294.855469 479.734375 292.6875 478.503906 290.546875 477.226562 C 288.410156 475.945312 286.304688 474.613281 284.234375 473.230469 C 282.160156 471.84375 280.121094 470.410156 278.121094 468.929688 C 276.117188 467.445312 274.15625 465.914062 272.226562 464.332031 C 270.300781 462.753906 268.414062 461.125 266.566406 459.453125 C 264.71875 457.78125 262.914062 456.0625 261.152344 454.300781 C 259.390625 452.542969 257.671875 450.738281 256 448.890625 C 254.324219 447.046875 252.695312 445.160156 251.117188 443.238281 C 249.535156 441.3125 248 439.347656 246.515625 437.347656 C 245.03125 435.347656 243.597656 433.3125 242.210938 431.242188 C 240.828125 429.167969 239.496094 427.066406 238.214844 424.929688 C 236.933594 422.792969 235.703125 420.625 234.527344 418.429688 C 233.355469 416.234375 232.234375 414.007812 231.167969 411.757812 C 230.101562 409.507812 229.09375 407.230469 228.136719 404.929688 C 227.183594 402.628906 226.289062 400.304688 225.449219 397.960938 C 224.609375 395.613281 223.828125 393.25 223.101562 390.867188 C 222.378906 388.484375 221.714844 386.085938 221.109375 383.667969 C 220.503906 381.25 219.957031 378.824219 219.472656 376.378906 C 218.984375 373.9375 218.558594 371.484375 218.195312 369.019531 C 217.828125 366.554688 217.523438 364.085938 217.277344 361.605469 C 217.035156 359.128906 216.851562 356.644531 216.726562 354.15625 C 216.605469 351.667969 216.546875 349.179688 216.546875 346.6875 L 216.546875 158.671875 C 237.398438 164.339844 257.789062 171.359375 277.710938 179.734375 C 297.632812 188.105469 316.914062 197.757812 335.554688 208.691406 C 321.65625 221.070312 309.65625 235.074219 299.550781 250.699219 C 295.578125 256.851562 292.066406 263.257812 289.015625 269.917969 C 285.96875 276.578125 283.414062 283.417969 281.351562 290.445312 C 279.289062 297.472656 277.742188 304.609375 276.710938 311.859375 C 275.675781 319.109375 275.171875 326.398438 275.1875 333.71875 C 275.1875 335.253906 275.226562 336.785156 275.300781 338.316406 C 275.375 339.84375 275.488281 341.375 275.636719 342.898438 C 275.789062 344.425781 275.976562 345.945312 276.199219 347.460938 C 276.421875 348.976562 276.683594 350.488281 276.984375 351.988281 C 277.28125 353.492188 277.617188 354.988281 277.992188 356.476562 C 278.363281 357.960938 278.773438 359.4375 279.214844 360.90625 C 279.660156 362.371094 280.140625 363.828125 280.65625 365.269531 C 281.175781 366.714844 281.726562 368.144531 282.3125 369.558594 C 282.898438 370.976562 283.519531 372.375 284.175781 373.761719 C 284.832031 375.148438 285.519531 376.515625 286.242188 377.867188 C 286.964844 379.21875 287.71875 380.550781 288.507812 381.867188 C 289.296875 383.183594 290.117188 384.476562 290.96875 385.75 C 291.820312 387.027344 292.703125 388.277344 293.617188 389.507812 C 294.53125 390.742188 295.472656 391.949219 296.445312 393.132812 C 297.417969 394.320312 298.421875 395.480469 299.449219 396.613281 C 300.480469 397.75 301.535156 398.859375 302.621094 399.945312 C 303.707031 401.027344 304.816406 402.085938 305.953125 403.113281 C 307.089844 404.144531 308.25 405.144531 309.433594 406.117188 C 310.621094 407.089844 311.828125 408.03125 313.058594 408.945312 C 314.292969 409.859375 315.546875 410.742188 316.820312 411.59375 C 318.097656 412.445312 319.390625 413.265625 320.707031 414.050781 C 322.023438 414.839844 323.355469 415.59375 324.707031 416.316406 C 326.0625 417.039062 327.429688 417.730469 328.816406 418.386719 C 330.203125 419.039062 331.605469 419.660156 333.023438 420.25 C 334.4375 420.835938 335.871094 421.386719 337.3125 421.902344 C 338.757812 422.417969 340.214844 422.898438 341.679688 423.34375 C 343.148438 423.789062 344.625 424.199219 346.113281 424.570312 C 347.601562 424.945312 349.097656 425.277344 350.601562 425.578125 C 352.105469 425.878906 353.617188 426.140625 355.132812 426.363281 C 356.652344 426.589844 358.171875 426.777344 359.699219 426.925781 C 361.226562 427.078125 362.753906 427.191406 364.285156 427.265625 C 365.820312 427.339844 367.351562 427.378906 368.886719 427.378906 C 370.417969 427.378906 371.953125 427.339844 373.484375 427.265625 C 375.015625 427.191406 376.542969 427.078125 378.070312 426.925781 C 379.597656 426.777344 381.121094 426.589844 382.636719 426.363281 C 384.152344 426.140625 385.664062 425.878906 387.167969 425.578125 C 388.671875 425.277344 390.167969 424.945312 391.65625 424.570312 C 393.144531 424.199219 394.621094 423.789062 396.089844 423.34375 C 397.558594 422.898438 399.011719 422.417969 400.457031 421.902344 C 401.902344 421.386719 403.332031 420.835938 404.75 420.25 C 406.164062 419.660156 407.566406 419.039062 408.953125 418.386719 C 410.339844 417.730469 411.710938 417.039062 413.0625 416.316406 C 414.414062 415.59375 415.75 414.839844 417.0625 414.050781 C 418.378906 413.265625 419.675781 412.445312 420.949219 411.59375 C 422.226562 410.742188 423.480469 409.859375 424.710938 408.945312 C 425.941406 408.03125 427.152344 407.089844 428.335938 406.117188 C 429.523438 405.144531 430.683594 404.144531 431.820312 403.113281 C 432.957031 402.085938 434.066406 401.027344 435.148438 399.945312 C 436.234375 398.859375 437.292969 397.75 438.320312 396.613281 C 439.351562 395.480469 440.351562 394.320312 441.324219 393.132812 C 442.296875 391.949219 443.242188 390.742188 444.152344 389.507812 C 445.066406 388.277344 445.949219 387.027344 446.800781 385.75 C 447.652344 384.476562 448.472656 383.183594 449.261719 381.867188 C 450.050781 380.550781 450.804688 379.21875 451.527344 377.867188 C 452.25 376.515625 452.941406 375.148438 453.59375 373.761719 C 454.25 372.375 454.871094 370.976562 455.457031 369.558594 C 456.046875 368.144531 456.597656 366.714844 457.113281 365.269531 C 457.628906 363.828125 458.109375 362.371094 458.554688 360.90625 C 459 359.4375 459.40625 357.960938 459.78125 356.476562 C 460.152344 354.988281 460.488281 353.492188 460.785156 351.988281 C 461.085938 350.488281 461.347656 348.976562 461.570312 347.460938 C 461.796875 345.945312 461.984375 344.425781 462.132812 342.898438 C 462.28125 341.375 462.394531 339.84375 462.46875 338.316406 C 462.542969 336.785156 462.582031 335.253906 462.582031 333.71875 C 462.601562 326.394531 462.09375 319.101562 461.0625 311.847656 C 460.027344 304.59375 458.480469 297.453125 456.417969 290.421875 C 454.355469 283.390625 451.796875 276.542969 448.746094 269.882812 C 445.695312 263.21875 442.179688 256.808594 438.207031 250.652344 C 428.097656 234.996094 416.085938 220.96875 402.171875 208.566406 C 429.398438 192.410156 458 179.226562 487.972656 169.015625 C 500.550781 164.65625 511.917969 161.1875 521.117188 158.65625 Z M 521.148438 346.6875 " fill-opacity="1" fill-rule="nonzero"/></g><g fill="rgb(0%, 51.759338%, 53.729248%)" fill-opacity="1"><g transform="translate(22.143755, 633.35431)"><g><path d="M 66.09375 0 L 51.3125 0 L 51.3125 -30.1875 L 23.625 -30.1875 L 23.625 0 L 8.796875 0 L 8.796875 -69.921875 L 23.625 -69.921875 L 23.625 -42.515625 L 51.3125 -42.515625 L 51.3125 -69.921875 L 66.09375 -69.921875 Z M 66.09375 0 "/></g></g></g><g fill="rgb(0%, 51.759338%, 53.729248%)" fill-opacity="1"><g transform="translate(97.081273, 633.35431)"><g><path d="M 30.84375 -54.484375 C 35.757812 -54.484375 40.15625 -53.375 44.03125 -51.15625 C 47.90625 -48.9375 50.898438 -45.742188 53.015625 -41.578125 C 55.140625 -37.421875 56.203125 -32.664062 56.203125 -27.3125 C 56.203125 -27.15625 56.203125 -26.992188 56.203125 -26.828125 C 56.203125 -18.128906 53.90625 -11.320312 49.3125 -6.40625 C 44.71875 -1.5 38.328125 0.953125 30.140625 0.953125 C 30.003906 0.953125 29.859375 0.953125 29.703125 0.953125 C 24.796875 0.953125 20.40625 -0.164062 16.53125 -2.40625 C 12.65625 -4.65625 9.65625 -7.867188 7.53125 -12.046875 C 5.414062 -16.222656 4.359375 -20.992188 4.359375 -26.359375 C 4.359375 -26.515625 4.359375 -26.671875 4.359375 -26.828125 C 4.359375 -35.566406 6.632812 -42.34375 11.1875 -47.15625 C 15.75 -52.039062 22.160156 -54.484375 30.421875 -54.484375 C 30.546875 -54.484375 30.6875 -54.484375 30.84375 -54.484375 Z M 38.640625 -38.8125 C 36.890625 -41.414062 34.082031 -42.71875 30.21875 -42.71875 C 26.363281 -42.71875 23.566406 -41.425781 21.828125 -38.84375 C 20.097656 -36.257812 19.234375 -32.265625 19.234375 -26.859375 C 19.234375 -21.453125 20.113281 -17.414062 21.875 -14.75 C 23.644531 -12.09375 26.453125 -10.765625 30.296875 -10.765625 C 34.140625 -10.765625 36.929688 -12.085938 38.671875 -14.734375 C 40.410156 -17.378906 41.28125 -21.40625 41.28125 -26.8125 C 41.28125 -32.21875 40.398438 -36.21875 38.640625 -38.8125 Z M 38.640625 -38.8125 "/></g></g></g><g fill="rgb(0%, 51.759338%, 53.729248%)" fill-opacity="1"><g transform="translate(157.719928, 633.35431)"><g><path d="M 23.8125 -53.46875 L 38.78125 -53.46875 L 38.78125 -42.515625 L 23.8125 -42.515625 L 23.8125 -16.734375 C 23.8125 -14.734375 24.378906 -13.222656 25.515625 -12.203125 C 26.648438 -11.179688 28.332031 -10.671875 30.5625 -10.671875 C 32.789062 -10.671875 35.722656 -11.226562 39.359375 -12.34375 L 39.359375 -1.484375 C 35.722656 0.140625 31.140625 0.953125 25.609375 0.953125 C 20.078125 0.953125 15.960938 -0.503906 13.265625 -3.421875 C 10.578125 -6.335938 9.234375 -10.773438 9.234375 -16.734375 L 9.234375 -42.515625 L 2.25 -42.515625 L 2.25 -48.6875 L 10.28125 -53.5625 L 14.484375 -64.859375 L 23.8125 -64.859375 Z M 23.8125 -53.46875 "/></g></g></g><g fill="rgb(0%, 51.759338%, 53.729248%)" fill-opacity="1"><g transform="translate(200.233938, 633.35431)"><g><path d="M 50.65625 -2.828125 C 45.738281 -0.304688 39.472656 0.953125 31.859375 0.953125 C 23.242188 0.953125 16.515625 -1.421875 11.671875 -6.171875 C 6.828125 -10.921875 4.40625 -17.710938 4.40625 -26.546875 C 4.40625 -35.378906 6.632812 -42.21875 11.09375 -47.0625 C 15.5625 -52.007812 21.664062 -54.484375 29.40625 -54.484375 C 37.15625 -54.484375 43.117188 -52.328125 47.296875 -48.015625 C 51.535156 -43.742188 53.65625 -37.800781 53.65625 -30.1875 L 53.65625 -23.09375 L 19.171875 -23.09375 C 19.335938 -18.914062 20.578125 -15.671875 22.890625 -13.359375 C 25.203125 -11.054688 28.414062 -9.90625 32.53125 -9.90625 C 38.582031 -9.90625 44.625 -11.304688 50.65625 -14.109375 Z M 39.984375 -32.8125 C 39.921875 -36.382812 38.988281 -39.15625 37.1875 -41.125 C 35.382812 -43.101562 32.9375 -44.09375 29.84375 -44.09375 C 26.75 -44.09375 24.316406 -43.117188 22.546875 -41.171875 C 20.773438 -39.234375 19.765625 -36.445312 19.515625 -32.8125 Z M 39.984375 -32.8125 "/></g></g></g><g fill="rgb(0%, 51.759338%, 53.729248%)" fill-opacity="1"><g transform="translate(258.098899, 633.35431)"><g><path d="M 22.234375 0 L 7.65625 0 L 7.65625 -74.421875 L 22.234375 -74.421875 Z M 22.234375 0 "/></g></g></g><g fill="rgb(0%, 51.759338%, 53.729248%)" fill-opacity="1"><g transform="translate(287.987827, 633.35431)"><g><path d="M 8.796875 -69.921875 L 29.171875 -69.921875 C 38.640625 -69.921875 45.660156 -68.195312 50.234375 -64.75 C 54.816406 -61.3125 57.109375 -56.054688 57.109375 -48.984375 C 57.109375 -44.867188 55.972656 -41.207031 53.703125 -38 C 51.441406 -34.789062 48.238281 -32.28125 44.09375 -30.46875 C 55.320312 -13.695312 62.179688 -3.539062 64.671875 0 L 48.21875 0 L 31.515625 -26.828125 L 23.625 -26.828125 L 23.625 0 L 8.796875 0 Z M 23.625 -57.78125 L 23.625 -38.890625 L 28.40625 -38.890625 C 33.09375 -38.890625 36.550781 -39.671875 38.78125 -41.234375 C 41.019531 -42.796875 42.140625 -45.234375 42.140625 -48.546875 C 42.140625 -51.859375 41.015625 -54.222656 38.765625 -55.640625 C 36.515625 -57.066406 32.96875 -57.78125 28.125 -57.78125 Z M 23.625 -57.78125 "/></g></g></g><g fill="rgb(0%, 51.759338%, 53.729248%)" fill-opacity="1"><g transform="translate(352.643553, 633.35431)"><g><path d="M 50.65625 -2.828125 C 45.738281 -0.304688 39.472656 0.953125 31.859375 0.953125 C 23.242188 0.953125 16.515625 -1.421875 11.671875 -6.171875 C 6.828125 -10.921875 4.40625 -17.710938 4.40625 -26.546875 C 4.40625 -35.378906 6.632812 -42.21875 11.09375 -47.0625 C 15.5625 -52.007812 21.664062 -54.484375 29.40625 -54.484375 C 37.15625 -54.484375 43.117188 -52.328125 47.296875 -48.015625 C 51.535156 -43.742188 53.65625 -37.800781 53.65625 -30.1875 L 53.65625 -23.09375 L 19.171875 -23.09375 C 19.335938 -18.914062 20.578125 -15.671875 22.890625 -13.359375 C 25.203125 -11.054688 28.414062 -9.90625 32.53125 -9.90625 C 38.582031 -9.90625 44.625 -11.304688 50.65625 -14.109375 Z M 39.984375 -32.8125 C 39.921875 -36.382812 38.988281 -39.15625 37.1875 -41.125 C 35.382812 -43.101562 32.9375 -44.09375 29.84375 -44.09375 C 26.75 -44.09375 24.316406 -43.117188 22.546875 -41.171875 C 20.773438 -39.234375 19.765625 -36.445312 19.515625 -32.8125 Z M 39.984375 -32.8125 "/></g></g></g><g fill="rgb(0%, 51.759338%, 53.729248%)" fill-opacity="1"><g transform="translate(410.508515, 633.35431)"><g><path d="M 35.34375 0 L 20.375 0 L 0 -53.46875 L 15.25 -53.46875 L 25.59375 -23 C 26.738281 -19.113281 27.453125 -15.460938 27.734375 -12.046875 L 28.03125 -12.046875 C 28.15625 -15.078125 28.875 -18.726562 30.1875 -23 L 40.46875 -53.46875 L 55.71875 -53.46875 Z M 35.34375 0 "/></g></g></g><g fill="rgb(0%, 51.759338%, 53.729248%)" fill-opacity="1"><g transform="translate(466.221475, 633.35431)"><g><path d="M 50.65625 -2.828125 C 45.738281 -0.304688 39.472656 0.953125 31.859375 0.953125 C 23.242188 0.953125 16.515625 -1.421875 11.671875 -6.171875 C 6.828125 -10.921875 4.40625 -17.710938 4.40625 -26.546875 C 4.40625 -35.378906 6.632812 -42.21875 11.09375 -47.0625 C 15.5625 -52.007812 21.664062 -54.484375 29.40625 -54.484375 C 37.15625 -54.484375 43.117188 -52.328125 47.296875 -48.015625 C 51.535156 -43.742188 53.65625 -37.800781 53.65625 -30.1875 L 53.65625 -23.09375 L 19.171875 -23.09375 C 19.335938 -18.914062 20.578125 -15.671875 22.890625 -13.359375 C 25.203125 -11.054688 28.414062 -9.90625 32.53125 -9.90625 C 38.582031 -9.90625 44.625 -11.304688 50.65625 -14.109375 Z M 39.984375 -32.8125 C 39.921875 -36.382812 38.988281 -39.15625 37.1875 -41.125 C 35.382812 -43.101562 32.9375 -44.09375 29.84375 -44.09375 C 26.75 -44.09375 24.316406 -43.117188 22.546875 -41.171875 C 20.773438 -39.234375 19.765625 -36.445312 19.515625 -32.8125 Z M 39.984375 -32.8125 "/></g></g></g><g fill="rgb(0%, 51.759338%, 53.729248%)" fill-opacity="1"><g transform="translate(524.086437, 633.35431)"><g><path d="M 9.09375 -49.734375 C 15.269531 -52.960938 22.039062 -54.578125 29.40625 -54.578125 C 36.78125 -54.578125 42.351562 -53 46.125 -49.84375 C 49.90625 -46.6875 51.796875 -41.945312 51.796875 -35.625 L 51.796875 0 L 41.609375 0 L 38.78125 -7.265625 L 38.40625 -7.265625 C 35.945312 -4.140625 33.425781 -1.988281 30.84375 -0.8125 C 28.257812 0.363281 24.863281 0.953125 20.65625 0.953125 C 15.5625 0.953125 11.515625 -0.507812 8.515625 -3.4375 C 5.578125 -6.375 4.109375 -10.597656 4.109375 -16.109375 C 4.109375 -21.628906 6.066406 -25.753906 9.984375 -28.484375 C 13.910156 -31.210938 19.925781 -32.71875 28.03125 -33 L 37.3125 -33.28125 L 37.3125 -35.625 C 37.3125 -41.050781 34.535156 -43.765625 28.984375 -43.765625 C 24.710938 -43.765625 19.691406 -42.472656 13.921875 -39.890625 Z M 19.078125 -15.875 C 19.078125 -11.757812 21.4375 -9.703125 26.15625 -9.703125 C 29.570312 -9.703125 32.285156 -10.675781 34.296875 -12.625 C 36.304688 -14.570312 37.3125 -17.15625 37.3125 -20.375 L 37.3125 -24.78125 L 31.65625 -24.578125 C 27.414062 -24.453125 24.257812 -23.6875 22.1875 -22.28125 C 20.113281 -20.882812 19.078125 -18.75 19.078125 -15.875 Z M 19.078125 -15.875 "/></g></g></g><g fill="rgb(0%, 51.759338%, 53.729248%)" fill-opacity="1"><g transform="translate(583.242572, 633.35431)"><g><path d="M 22.234375 0 L 7.65625 0 L 7.65625 -74.421875 L 22.234375 -74.421875 Z M 22.234375 0 "/></g></g></g><g fill="rgb(0%, 51.759338%, 53.729248%)" fill-opacity="1"><g transform="translate(613.13147, 633.35431)"><g><path d="M 50.65625 -2.828125 C 45.738281 -0.304688 39.472656 0.953125 31.859375 0.953125 C 23.242188 0.953125 16.515625 -1.421875 11.671875 -6.171875 C 6.828125 -10.921875 4.40625 -17.710938 4.40625 -26.546875 C 4.40625 -35.378906 6.632812 -42.21875 11.09375 -47.0625 C 15.5625 -52.007812 21.664062 -54.484375 29.40625 -54.484375 C 37.15625 -54.484375 43.117188 -52.328125 47.296875 -48.015625 C 51.535156 -43.742188 53.65625 -37.800781 53.65625 -30.1875 L 53.65625 -23.09375 L 19.171875 -23.09375 C 19.335938 -18.914062 20.578125 -15.671875 22.890625 -13.359375 C 25.203125 -11.054688 28.414062 -9.90625 32.53125 -9.90625 C 38.582031 -9.90625 44.625 -11.304688 50.65625 -14.109375 Z M 39.984375 -32.8125 C 39.921875 -36.382812 38.988281 -39.15625 37.1875 -41.125 C 35.382812 -43.101562 32.9375 -44.09375 29.84375 -44.09375 C 26.75 -44.09375 24.316406 -43.117188 22.546875 -41.171875 C 20.773438 -39.234375 19.765625 -36.445312 19.515625 -32.8125 Z M 39.984375 -32.8125 "/></g></g></g><g fill="rgb(0%, 51.759338%, 53.729248%)" fill-opacity="1"><g transform="translate(670.996431, 633.35431)"><g><path d="M 37.5 -54.484375 C 39.507812 -54.484375 41.148438 -54.335938 42.421875 -54.046875 L 41.328125 -40.375 C 40.179688 -40.6875 38.742188 -40.84375 37.015625 -40.84375 C 32.359375 -40.84375 28.726562 -39.644531 26.125 -37.25 C 23.53125 -34.863281 22.234375 -31.519531 22.234375 -27.21875 L 22.234375 0 L 7.65625 0 L 7.65625 -53.46875 L 18.703125 -53.46875 L 20.859375 -44.484375 L 21.578125 -44.484375 C 23.296875 -47.546875 25.523438 -49.953125 28.265625 -51.703125 C 31.066406 -53.554688 34.144531 -54.484375 37.5 -54.484375 Z M 37.5 -54.484375 "/></g></g></g></svg>