<svg xmlns="http://www.w3.org/2000/svg" xmlns:xlink="http://www.w3.org/1999/xlink" width="500" zoomAndPan="magnify" viewBox="0 0 375 374.999991" height="500" preserveAspectRatio="xMidYMid meet" version="1.0"><defs><g><g id="id1"/></g><clipPath id="id2"><path d="M 108.664062 61.664062 L 266.164062 61.664062 L 266.164062 237.914062 L 108.664062 237.914062 Z M 108.664062 61.664062 " clip-rule="nonzero"/></clipPath></defs><g clip-path="url(#id2)"><path fill="rgb(0%, 51.759338%, 53.729248%)" d="M 256.398438 63.714844 C 247.851562 65.605469 239.453125 68.003906 231.199219 70.90625 C 223.089844 73.691406 215.171875 76.933594 207.441406 80.632812 C 200.5 83.941406 193.824219 87.71875 187.414062 91.960938 C 180.976562 87.714844 174.277344 83.9375 167.308594 80.632812 C 159.582031 76.929688 151.667969 73.6875 143.566406 70.902344 C 135.332031 68 126.953125 65.605469 118.429688 63.714844 L 108.664062 61.71875 L 108.664062 159.21875 C 108.664062 160.507812 108.695312 161.792969 108.757812 163.078125 C 108.820312 164.367188 108.914062 165.652344 109.039062 166.933594 C 109.164062 168.214844 109.324219 169.492188 109.511719 170.765625 C 109.699219 172.039062 109.921875 173.308594 110.171875 174.570312 C 110.421875 175.835938 110.703125 177.089844 111.015625 178.339844 C 111.332031 179.589844 111.671875 180.832031 112.046875 182.0625 C 112.421875 183.296875 112.824219 184.519531 113.257812 185.730469 C 113.691406 186.945312 114.15625 188.144531 114.648438 189.335938 C 115.144531 190.527344 115.664062 191.703125 116.214844 192.867188 C 116.765625 194.03125 117.34375 195.183594 117.953125 196.320312 C 118.558594 197.453125 119.195312 198.574219 119.859375 199.679688 C 120.519531 200.785156 121.210938 201.871094 121.925781 202.945312 C 122.640625 204.015625 123.382812 205.066406 124.152344 206.101562 C 124.917969 207.136719 125.710938 208.152344 126.527344 209.148438 C 127.347656 210.144531 128.1875 211.117188 129.054688 212.074219 C 129.917969 213.027344 130.808594 213.960938 131.71875 214.871094 C 132.628906 215.78125 133.5625 216.671875 134.519531 217.535156 C 135.472656 218.402344 136.449219 219.242188 137.445312 220.058594 C 138.441406 220.875 139.457031 221.667969 140.492188 222.4375 C 141.527344 223.203125 142.582031 223.945312 143.652344 224.660156 C 144.726562 225.375 145.8125 226.066406 146.917969 226.726562 C 148.023438 227.390625 149.144531 228.023438 150.28125 228.632812 C 151.417969 229.238281 152.570312 229.816406 153.734375 230.367188 C 154.902344 230.917969 156.078125 231.441406 157.269531 231.933594 C 158.460938 232.425781 159.664062 232.890625 160.878906 233.324219 C 162.089844 233.757812 163.316406 234.164062 164.546875 234.535156 C 165.78125 234.910156 167.023438 235.253906 168.273438 235.566406 C 169.523438 235.878906 170.78125 236.164062 172.046875 236.414062 C 173.3125 236.664062 174.582031 236.886719 175.855469 237.074219 C 177.128906 237.261719 178.410156 237.421875 179.691406 237.546875 C 180.976562 237.671875 182.261719 237.769531 183.546875 237.832031 C 184.835938 237.894531 186.125 237.925781 187.414062 237.925781 C 188.703125 237.925781 189.992188 237.894531 191.277344 237.832031 C 192.566406 237.769531 193.851562 237.671875 195.132812 237.546875 C 196.417969 237.421875 197.695312 237.261719 198.96875 237.074219 C 200.246094 236.886719 201.515625 236.664062 202.78125 236.414062 C 204.042969 236.164062 205.300781 235.878906 206.550781 235.566406 C 207.800781 235.253906 209.042969 234.910156 210.277344 234.535156 C 211.511719 234.164062 212.734375 233.757812 213.949219 233.324219 C 215.164062 232.890625 216.363281 232.425781 217.554688 231.933594 C 218.746094 231.441406 219.925781 230.917969 221.089844 230.367188 C 222.253906 229.816406 223.40625 229.238281 224.542969 228.632812 C 225.679688 228.023438 226.800781 227.390625 227.90625 226.726562 C 229.011719 226.066406 230.101562 225.375 231.171875 224.660156 C 232.246094 223.945312 233.296875 223.203125 234.332031 222.4375 C 235.367188 221.667969 236.382812 220.875 237.378906 220.058594 C 238.378906 219.242188 239.351562 218.402344 240.308594 217.535156 C 241.261719 216.671875 242.195312 215.78125 243.105469 214.871094 C 244.019531 213.960938 244.90625 213.027344 245.773438 212.074219 C 246.636719 211.117188 247.480469 210.144531 248.296875 209.148438 C 249.113281 208.152344 249.90625 207.136719 250.675781 206.101562 C 251.441406 205.066406 252.183594 204.015625 252.902344 202.945312 C 253.617188 201.871094 254.304688 200.785156 254.96875 199.679688 C 255.628906 198.574219 256.265625 197.453125 256.875 196.320312 C 257.480469 195.183594 258.058594 194.03125 258.609375 192.867188 C 259.160156 191.703125 259.683594 190.527344 260.175781 189.335938 C 260.667969 188.144531 261.132812 186.945312 261.566406 185.730469 C 262 184.519531 262.40625 183.296875 262.777344 182.0625 C 263.152344 180.832031 263.496094 179.589844 263.808594 178.339844 C 264.121094 177.089844 264.402344 175.835938 264.65625 174.570312 C 264.90625 173.308594 265.125 172.039062 265.3125 170.765625 C 265.503906 169.492188 265.660156 168.214844 265.785156 166.933594 C 265.914062 165.652344 266.007812 164.367188 266.070312 163.078125 C 266.132812 161.792969 266.164062 160.507812 266.164062 159.21875 L 266.164062 61.71875 Z M 187.414062 112.335938 C 202.148438 124.675781 209.601562 138.710938 209.539062 153.929688 C 209.539062 154.65625 209.503906 155.378906 209.433594 156.097656 C 209.359375 156.820312 209.253906 157.535156 209.113281 158.242188 C 208.972656 158.953125 208.796875 159.65625 208.585938 160.347656 C 208.375 161.042969 208.132812 161.722656 207.855469 162.390625 C 207.578125 163.058594 207.269531 163.714844 206.925781 164.351562 C 206.585938 164.992188 206.210938 165.609375 205.808594 166.210938 C 205.40625 166.816406 204.976562 167.394531 204.515625 167.953125 C 204.058594 168.515625 203.570312 169.050781 203.058594 169.5625 C 202.546875 170.074219 202.007812 170.558594 201.449219 171.019531 C 200.890625 171.480469 200.308594 171.910156 199.707031 172.3125 C 199.101562 172.714844 198.480469 173.085938 197.84375 173.425781 C 197.203125 173.769531 196.550781 174.078125 195.878906 174.355469 C 195.210938 174.632812 194.527344 174.875 193.835938 175.085938 C 193.140625 175.296875 192.441406 175.472656 191.730469 175.613281 C 191.019531 175.753906 190.304688 175.859375 189.582031 175.929688 C 188.859375 176 188.136719 176.039062 187.414062 176.039062 C 186.6875 176.039062 185.964844 176 185.246094 175.929688 C 184.523438 175.859375 183.808594 175.753906 183.097656 175.613281 C 182.386719 175.472656 181.683594 175.296875 180.992188 175.085938 C 180.296875 174.875 179.617188 174.632812 178.945312 174.355469 C 178.277344 174.078125 177.621094 173.769531 176.984375 173.425781 C 176.34375 173.085938 175.722656 172.714844 175.121094 172.3125 C 174.519531 171.910156 173.9375 171.480469 173.375 171.019531 C 172.816406 170.558594 172.28125 170.074219 171.769531 169.5625 C 171.253906 169.050781 170.769531 168.515625 170.308594 167.953125 C 169.851562 167.394531 169.417969 166.816406 169.015625 166.210938 C 168.613281 165.609375 168.242188 164.992188 167.898438 164.351562 C 167.558594 163.714844 167.25 163.058594 166.972656 162.390625 C 166.695312 161.722656 166.449219 161.042969 166.238281 160.347656 C 166.03125 159.65625 165.855469 158.953125 165.710938 158.242188 C 165.570312 157.535156 165.464844 156.820312 165.394531 156.097656 C 165.324219 155.378906 165.289062 154.65625 165.289062 153.929688 C 165.238281 138.574219 172.683594 124.613281 187.414062 112.335938 Z M 249.863281 159.21875 C 249.863281 161.261719 249.765625 163.300781 249.5625 165.335938 C 249.363281 167.371094 249.0625 169.390625 248.664062 171.394531 C 248.265625 173.398438 247.769531 175.378906 247.175781 177.335938 C 246.582031 179.292969 245.894531 181.214844 245.109375 183.101562 C 244.328125 184.992188 243.453125 186.835938 242.488281 188.640625 C 241.523438 190.441406 240.472656 192.191406 239.335938 193.894531 C 238.199219 195.59375 236.984375 197.230469 235.683594 198.8125 C 234.386719 200.390625 233.015625 201.90625 231.570312 203.351562 C 230.121094 204.796875 228.609375 206.167969 227.027344 207.464844 C 225.445312 208.761719 223.804688 209.976562 222.101562 211.113281 C 220.402344 212.25 218.648438 213.296875 216.84375 214.261719 C 215.039062 215.226562 213.191406 216.097656 211.300781 216.878906 C 209.414062 217.664062 207.488281 218.351562 205.53125 218.945312 C 203.574219 219.535156 201.589844 220.03125 199.585938 220.429688 C 197.578125 220.832031 195.554688 221.128906 193.519531 221.332031 C 191.484375 221.53125 189.441406 221.628906 187.398438 221.628906 C 185.351562 221.628906 183.308594 221.53125 181.273438 221.332031 C 179.238281 221.128906 177.21875 220.832031 175.210938 220.429688 C 173.203125 220.03125 171.222656 219.535156 169.265625 218.945312 C 167.304688 218.351562 165.382812 217.664062 163.492188 216.878906 C 161.601562 216.097656 159.753906 215.226562 157.949219 214.261719 C 156.144531 213.296875 154.394531 212.25 152.691406 211.113281 C 150.992188 209.976562 149.351562 208.761719 147.769531 207.464844 C 146.1875 206.167969 144.671875 204.796875 143.226562 203.351562 C 141.78125 201.90625 140.40625 200.390625 139.109375 198.8125 C 137.8125 197.230469 136.59375 195.59375 135.457031 193.894531 C 134.320312 192.191406 133.269531 190.441406 132.304688 188.640625 C 131.339844 186.835938 130.46875 184.992188 129.683594 183.101562 C 128.902344 181.214844 128.214844 179.292969 127.621094 177.335938 C 127.027344 175.378906 126.527344 173.398438 126.128906 171.394531 C 125.730469 169.390625 125.429688 167.371094 125.230469 165.335938 C 125.03125 163.300781 124.929688 161.261719 124.929688 159.21875 L 124.929688 82.113281 C 142.113281 86.78125 158.382812 93.621094 173.742188 102.625 C 168.042969 107.703125 163.117188 113.445312 158.976562 119.851562 C 155.699219 124.925781 153.210938 130.359375 151.511719 136.152344 C 149.808594 141.945312 148.96875 147.863281 148.984375 153.898438 C 148.984375 155.15625 149.042969 156.414062 149.167969 157.664062 C 149.289062 158.914062 149.472656 160.160156 149.71875 161.390625 C 149.964844 162.625 150.269531 163.84375 150.632812 165.046875 C 151 166.253906 151.421875 167.433594 151.90625 168.597656 C 152.386719 169.757812 152.921875 170.894531 153.515625 172.003906 C 154.109375 173.113281 154.757812 174.191406 155.453125 175.238281 C 156.152344 176.285156 156.902344 177.292969 157.703125 178.265625 C 158.5 179.238281 159.34375 180.167969 160.234375 181.058594 C 161.125 181.949219 162.054688 182.792969 163.027344 183.589844 C 164 184.386719 165.011719 185.136719 166.058594 185.835938 C 167.105469 186.535156 168.183594 187.179688 169.292969 187.773438 C 170.402344 188.367188 171.539062 188.902344 172.703125 189.386719 C 173.867188 189.867188 175.050781 190.289062 176.253906 190.65625 C 177.460938 191.019531 178.679688 191.324219 179.914062 191.570312 C 181.148438 191.816406 182.394531 192 183.644531 192.125 C 184.898438 192.246094 186.152344 192.308594 187.414062 192.308594 C 188.671875 192.308594 189.929688 192.246094 191.179688 192.125 C 192.433594 192 193.675781 191.816406 194.910156 191.570312 C 196.148438 191.324219 197.367188 191.019531 198.570312 190.65625 C 199.777344 190.289062 200.960938 189.867188 202.121094 189.386719 C 203.285156 188.902344 204.421875 188.367188 205.53125 187.773438 C 206.644531 187.179688 207.722656 186.535156 208.769531 185.835938 C 209.8125 185.136719 210.824219 184.386719 211.796875 183.589844 C 212.769531 182.792969 213.703125 181.949219 214.59375 181.058594 C 215.480469 180.167969 216.324219 179.238281 217.125 178.265625 C 217.921875 177.292969 218.671875 176.285156 219.371094 175.238281 C 220.070312 174.191406 220.714844 173.113281 221.308594 172.003906 C 221.902344 170.894531 222.441406 169.757812 222.921875 168.597656 C 223.402344 167.433594 223.828125 166.253906 224.191406 165.046875 C 224.554688 163.84375 224.863281 162.625 225.105469 161.390625 C 225.351562 160.160156 225.535156 158.914062 225.660156 157.664062 C 225.78125 156.414062 225.84375 155.15625 225.84375 153.898438 C 225.859375 147.859375 225.015625 141.941406 223.316406 136.144531 C 221.613281 130.347656 219.125 124.910156 215.84375 119.835938 C 211.699219 113.414062 206.773438 107.660156 201.066406 102.574219 C 212.234375 95.949219 223.964844 90.542969 236.257812 86.355469 C 241.417969 84.566406 246.078125 83.144531 249.851562 82.105469 Z M 249.863281 159.21875 " fill-opacity="1" fill-rule="nonzero"/></g><g fill="rgb(0%, 51.759338%, 53.729248%)" fill-opacity="1"><g transform="translate(14.164148, 285.563613)"><g><path d="M 33.046875 0 L 25.65625 0 L 25.65625 -15.09375 L 11.8125 -15.09375 L 11.8125 0 L 4.40625 0 L 4.40625 -34.953125 L 11.8125 -34.953125 L 11.8125 -21.25 L 25.65625 -21.25 L 25.65625 -34.953125 L 33.046875 -34.953125 Z M 33.046875 0 "/></g></g></g><g fill="rgb(0%, 51.759338%, 53.729248%)" fill-opacity="1"><g transform="translate(51.632905, 285.563613)"><g><path d="M 15.421875 -27.234375 C 17.867188 -27.234375 20.0625 -26.675781 22 -25.5625 C 23.9375 -24.457031 25.4375 -22.863281 26.5 -20.78125 C 27.5625 -18.707031 28.09375 -16.332031 28.09375 -13.65625 C 28.09375 -13.570312 28.09375 -13.488281 28.09375 -13.40625 C 28.09375 -9.0625 26.941406 -5.660156 24.640625 -3.203125 C 22.347656 -0.742188 19.15625 0.484375 15.0625 0.484375 C 14.988281 0.484375 14.914062 0.484375 14.84375 0.484375 C 12.382812 0.484375 10.1875 -0.078125 8.25 -1.203125 C 6.3125 -2.328125 4.8125 -3.929688 3.75 -6.015625 C 2.695312 -8.109375 2.171875 -10.492188 2.171875 -13.171875 C 2.171875 -13.253906 2.171875 -13.332031 2.171875 -13.40625 C 2.171875 -17.78125 3.3125 -21.171875 5.59375 -23.578125 C 7.863281 -26.015625 11.066406 -27.234375 15.203125 -27.234375 C 15.265625 -27.234375 15.335938 -27.234375 15.421875 -27.234375 Z M 19.3125 -19.40625 C 18.4375 -20.707031 17.035156 -21.359375 15.109375 -21.359375 C 13.179688 -21.359375 11.78125 -20.710938 10.90625 -19.421875 C 10.039062 -18.128906 9.609375 -16.128906 9.609375 -13.421875 C 9.609375 -10.722656 10.050781 -8.707031 10.9375 -7.375 C 11.820312 -6.039062 13.222656 -5.375 15.140625 -5.375 C 17.054688 -5.375 18.445312 -6.035156 19.3125 -7.359375 C 20.1875 -8.679688 20.625 -10.691406 20.625 -13.390625 C 20.625 -16.097656 20.1875 -18.101562 19.3125 -19.40625 Z M 19.3125 -19.40625 "/></g></g></g><g fill="rgb(0%, 51.759338%, 53.729248%)" fill-opacity="1"><g transform="translate(81.952232, 285.563613)"><g><path d="M 11.90625 -26.734375 L 19.390625 -26.734375 L 19.390625 -21.25 L 11.90625 -21.25 L 11.90625 -8.375 C 11.90625 -7.363281 12.1875 -6.601562 12.75 -6.09375 C 13.320312 -5.582031 14.164062 -5.328125 15.28125 -5.328125 C 16.394531 -5.328125 17.859375 -5.609375 19.671875 -6.171875 L 19.671875 -0.734375 C 17.859375 0.078125 15.566406 0.484375 12.796875 0.484375 C 10.035156 0.484375 7.976562 -0.242188 6.625 -1.703125 C 5.28125 -3.160156 4.609375 -5.382812 4.609375 -8.375 L 4.609375 -21.25 L 1.125 -21.25 L 1.125 -24.34375 L 5.140625 -26.78125 L 7.25 -32.421875 L 11.90625 -32.421875 Z M 11.90625 -26.734375 "/></g></g></g><g fill="rgb(0%, 51.759338%, 53.729248%)" fill-opacity="1"><g transform="translate(103.209236, 285.563613)"><g><path d="M 25.328125 -1.40625 C 22.867188 -0.144531 19.734375 0.484375 15.921875 0.484375 C 11.617188 0.484375 8.253906 -0.703125 5.828125 -3.078125 C 3.410156 -5.453125 2.203125 -8.847656 2.203125 -13.265625 C 2.203125 -17.679688 3.316406 -21.101562 5.546875 -23.53125 C 7.773438 -26 10.828125 -27.234375 14.703125 -27.234375 C 18.578125 -27.234375 21.554688 -26.15625 23.640625 -24 C 25.765625 -21.863281 26.828125 -18.894531 26.828125 -15.09375 L 26.828125 -11.546875 L 9.59375 -11.546875 C 9.664062 -9.460938 10.28125 -7.84375 11.4375 -6.6875 C 12.59375 -5.53125 14.203125 -4.953125 16.265625 -4.953125 C 19.285156 -4.953125 22.304688 -5.648438 25.328125 -7.046875 Z M 19.984375 -16.40625 C 19.953125 -18.1875 19.484375 -19.570312 18.578125 -20.5625 C 17.679688 -21.550781 16.457031 -22.046875 14.90625 -22.046875 C 13.363281 -22.046875 12.148438 -21.554688 11.265625 -20.578125 C 10.390625 -19.609375 9.882812 -18.21875 9.75 -16.40625 Z M 19.984375 -16.40625 "/></g></g></g><g fill="rgb(0%, 51.759338%, 53.729248%)" fill-opacity="1"><g transform="translate(132.141716, 285.563613)"><g><path d="M 11.125 0 L 3.828125 0 L 3.828125 -37.203125 L 11.125 -37.203125 Z M 11.125 0 "/></g></g></g><g fill="rgb(0%, 51.759338%, 53.729248%)" fill-opacity="1"><g transform="translate(147.086179, 285.563613)"><g><path d="M 4.40625 -34.953125 L 14.578125 -34.953125 C 19.316406 -34.953125 22.828125 -34.09375 25.109375 -32.375 C 27.398438 -30.65625 28.546875 -28.023438 28.546875 -24.484375 C 28.546875 -22.429688 27.976562 -20.601562 26.84375 -19 C 25.71875 -17.394531 24.117188 -16.140625 22.046875 -15.234375 C 27.660156 -6.847656 31.085938 -1.769531 32.328125 0 L 24.109375 0 L 15.75 -13.40625 L 11.8125 -13.40625 L 11.8125 0 L 4.40625 0 Z M 11.8125 -28.890625 L 11.8125 -19.4375 L 14.203125 -19.4375 C 16.546875 -19.4375 18.273438 -19.828125 19.390625 -20.609375 C 20.503906 -21.390625 21.0625 -22.609375 21.0625 -24.265625 C 21.0625 -25.921875 20.5 -27.101562 19.375 -27.8125 C 18.25 -28.53125 16.476562 -28.890625 14.0625 -28.890625 Z M 11.8125 -28.890625 "/></g></g></g><g fill="rgb(0%, 51.759338%, 53.729248%)" fill-opacity="1"><g transform="translate(179.414042, 285.563613)"><g><path d="M 25.328125 -1.40625 C 22.867188 -0.144531 19.734375 0.484375 15.921875 0.484375 C 11.617188 0.484375 8.253906 -0.703125 5.828125 -3.078125 C 3.410156 -5.453125 2.203125 -8.847656 2.203125 -13.265625 C 2.203125 -17.679688 3.316406 -21.101562 5.546875 -23.53125 C 7.773438 -26 10.828125 -27.234375 14.703125 -27.234375 C 18.578125 -27.234375 21.554688 -26.15625 23.640625 -24 C 25.765625 -21.863281 26.828125 -18.894531 26.828125 -15.09375 L 26.828125 -11.546875 L 9.59375 -11.546875 C 9.664062 -9.460938 10.28125 -7.84375 11.4375 -6.6875 C 12.59375 -5.53125 14.203125 -4.953125 16.265625 -4.953125 C 19.285156 -4.953125 22.304688 -5.648438 25.328125 -7.046875 Z M 19.984375 -16.40625 C 19.953125 -18.1875 19.484375 -19.570312 18.578125 -20.5625 C 17.679688 -21.550781 16.457031 -22.046875 14.90625 -22.046875 C 13.363281 -22.046875 12.148438 -21.554688 11.265625 -20.578125 C 10.390625 -19.609375 9.882812 -18.21875 9.75 -16.40625 Z M 19.984375 -16.40625 "/></g></g></g><g fill="rgb(0%, 51.759338%, 53.729248%)" fill-opacity="1"><g transform="translate(208.346522, 285.563613)"><g><path d="M 17.671875 0 L 10.1875 0 L 0 -26.734375 L 7.625 -26.734375 L 12.796875 -11.5 C 13.367188 -9.550781 13.726562 -7.726562 13.875 -6.03125 L 14.015625 -6.03125 C 14.078125 -7.539062 14.4375 -9.363281 15.09375 -11.5 L 20.234375 -26.734375 L 27.859375 -26.734375 Z M 17.671875 0 "/></g></g></g><g fill="rgb(0%, 51.759338%, 53.729248%)" fill-opacity="1"><g transform="translate(236.203001, 285.563613)"><g><path d="M 25.328125 -1.40625 C 22.867188 -0.144531 19.734375 0.484375 15.921875 0.484375 C 11.617188 0.484375 8.253906 -0.703125 5.828125 -3.078125 C 3.410156 -5.453125 2.203125 -8.847656 2.203125 -13.265625 C 2.203125 -17.679688 3.316406 -21.101562 5.546875 -23.53125 C 7.773438 -26 10.828125 -27.234375 14.703125 -27.234375 C 18.578125 -27.234375 21.554688 -26.15625 23.640625 -24 C 25.765625 -21.863281 26.828125 -18.894531 26.828125 -15.09375 L 26.828125 -11.546875 L 9.59375 -11.546875 C 9.664062 -9.460938 10.28125 -7.84375 11.4375 -6.6875 C 12.59375 -5.53125 14.203125 -4.953125 16.265625 -4.953125 C 19.285156 -4.953125 22.304688 -5.648438 25.328125 -7.046875 Z M 19.984375 -16.40625 C 19.953125 -18.1875 19.484375 -19.570312 18.578125 -20.5625 C 17.679688 -21.550781 16.457031 -22.046875 14.90625 -22.046875 C 13.363281 -22.046875 12.148438 -21.554688 11.265625 -20.578125 C 10.390625 -19.609375 9.882812 -18.21875 9.75 -16.40625 Z M 19.984375 -16.40625 "/></g></g></g><g fill="rgb(0%, 51.759338%, 53.729248%)" fill-opacity="1"><g transform="translate(265.135481, 285.563613)"><g><path d="M 4.546875 -24.859375 C 7.640625 -26.472656 11.023438 -27.28125 14.703125 -27.28125 C 18.390625 -27.28125 21.175781 -26.488281 23.0625 -24.90625 C 24.945312 -23.332031 25.890625 -20.96875 25.890625 -17.8125 L 25.890625 0 L 20.796875 0 L 19.390625 -3.640625 L 19.203125 -3.640625 C 17.972656 -2.078125 16.710938 -1 15.421875 -0.40625 C 14.128906 0.1875 12.429688 0.484375 10.328125 0.484375 C 7.773438 0.484375 5.75 -0.25 4.25 -1.71875 C 2.789062 -3.1875 2.0625 -5.296875 2.0625 -8.046875 C 2.0625 -10.804688 3.039062 -12.867188 5 -14.234375 C 6.957031 -15.597656 9.960938 -16.351562 14.015625 -16.5 L 18.65625 -16.640625 L 18.65625 -17.8125 C 18.65625 -20.519531 17.265625 -21.875 14.484375 -21.875 C 12.347656 -21.875 9.835938 -21.226562 6.953125 -19.9375 Z M 9.546875 -7.9375 C 9.546875 -5.882812 10.722656 -4.859375 13.078125 -4.859375 C 14.785156 -4.859375 16.140625 -5.34375 17.140625 -6.3125 C 18.148438 -7.28125 18.65625 -8.570312 18.65625 -10.1875 L 18.65625 -12.390625 L 15.828125 -12.296875 C 13.710938 -12.222656 12.132812 -11.835938 11.09375 -11.140625 C 10.0625 -10.441406 9.546875 -9.375 9.546875 -7.9375 Z M 9.546875 -7.9375 "/></g></g></g><g fill="rgb(0%, 51.759338%, 53.729248%)" fill-opacity="1"><g transform="translate(294.713548, 285.563613)"><g><path d="M 11.125 0 L 3.828125 0 L 3.828125 -37.203125 L 11.125 -37.203125 Z M 11.125 0 "/></g></g></g><g fill="rgb(0%, 51.759338%, 53.729248%)" fill-opacity="1"><g transform="translate(309.657996, 285.563613)"><g><path d="M 25.328125 -1.40625 C 22.867188 -0.144531 19.734375 0.484375 15.921875 0.484375 C 11.617188 0.484375 8.253906 -0.703125 5.828125 -3.078125 C 3.410156 -5.453125 2.203125 -8.847656 2.203125 -13.265625 C 2.203125 -17.679688 3.316406 -21.101562 5.546875 -23.53125 C 7.773438 -26 10.828125 -27.234375 14.703125 -27.234375 C 18.578125 -27.234375 21.554688 -26.15625 23.640625 -24 C 25.765625 -21.863281 26.828125 -18.894531 26.828125 -15.09375 L 26.828125 -11.546875 L 9.59375 -11.546875 C 9.664062 -9.460938 10.28125 -7.84375 11.4375 -6.6875 C 12.59375 -5.53125 14.203125 -4.953125 16.265625 -4.953125 C 19.285156 -4.953125 22.304688 -5.648438 25.328125 -7.046875 Z M 19.984375 -16.40625 C 19.953125 -18.1875 19.484375 -19.570312 18.578125 -20.5625 C 17.679688 -21.550781 16.457031 -22.046875 14.90625 -22.046875 C 13.363281 -22.046875 12.148438 -21.554688 11.265625 -20.578125 C 10.390625 -19.609375 9.882812 -18.21875 9.75 -16.40625 Z M 19.984375 -16.40625 "/></g></g></g><g fill="rgb(0%, 51.759338%, 53.729248%)" fill-opacity="1"><g transform="translate(338.590476, 285.563613)"><g><path d="M 18.75 -27.234375 C 19.75 -27.234375 20.566406 -27.160156 21.203125 -27.015625 L 20.65625 -20.1875 C 20.082031 -20.34375 19.363281 -20.421875 18.5 -20.421875 C 16.175781 -20.421875 14.363281 -19.820312 13.0625 -18.625 C 11.769531 -17.425781 11.125 -15.753906 11.125 -13.609375 L 11.125 0 L 3.828125 0 L 3.828125 -26.734375 L 9.34375 -26.734375 L 10.421875 -22.234375 L 10.78125 -22.234375 C 11.644531 -23.765625 12.757812 -24.96875 14.125 -25.84375 C 15.53125 -26.769531 17.070312 -27.234375 18.75 -27.234375 Z M 18.75 -27.234375 "/></g></g></g></svg>